<?xml version="1.0" standalone="no"?>
<!DOCTYPE svg PUBLIC "-//W3C//DTD SVG 20010904//EN"
 "http://www.w3.org/TR/2001/REC-SVG-20010904/DTD/svg10.dtd">
<svg version="1.0" xmlns="http://www.w3.org/2000/svg"
 width="1050.000000pt" height="1050.000000pt" viewBox="0 0 1050.000000 1050.000000"
 preserveAspectRatio="xMidYMid meet">
<metadata>
Created by potrace 1.11, written by Peter Selinger 2001-2013
</metadata>
<g transform="translate(0.000000,1050.000000) scale(0.100000,-0.100000)"
fill="#000000" stroke="none">
<path d="M5069 8476 c-2 -2 -40 -7 -84 -10 -44 -4 -91 -9 -105 -11 -14 -2 -47
-6 -75 -10 -142 -19 -559 -136 -590 -166 -5 -5 -15 -9 -23 -9 -23 0 -284 -135
-393 -202 -258 -161 -567 -443 -760 -693 -226 -292 -412 -668 -495 -1000 -24
-95 -62 -282 -68 -333 -3 -26 -9 -72 -13 -102 -16 -111 -8 -607 11 -706 2 -12
7 -45 11 -75 10 -78 41 -229 71 -339 101 -374 266 -698 515 -1011 72 -90 327
-355 384 -399 11 -8 52 -41 90 -71 242 -194 503 -338 790 -436 98 -33 317 -93
343 -93 26 0 106 217 128 347 2 12 6 35 9 51 3 15 7 46 11 69 l5 41 -43 7
c-90 15 -319 99 -464 170 -415 204 -729 492 -971 892 l-53 86 52 24 c172 80
426 160 603 191 120 21 441 28 546 11 29 -5 73 -11 97 -14 129 -16 331 -73
482 -138 278 -119 534 -308 945 -698 127 -120 234 -221 275 -258 19 -18 53
-49 75 -69 22 -20 67 -59 100 -87 33 -27 62 -52 65 -55 35 -37 272 -209 381
-277 224 -140 508 -243 769 -280 52 -8 337 -8 425 -1 l40 3 0 240 0 240 -65 2
c-128 3 -297 12 -311 17 -8 3 -38 8 -67 11 -145 14 -361 91 -491 174 -12 8 7
33 90 118 209 216 369 433 490 663 66 124 152 333 174 420 2 8 13 47 23 85 32
115 56 236 77 390 23 171 23 645 1 775 -3 14 -7 48 -11 75 -3 28 -13 88 -21
135 -9 47 -18 96 -20 110 -18 102 -121 444 -143 475 -4 6 -16 33 -26 60 -40
110 -165 336 -269 485 -296 424 -697 753 -1171 960 -204 90 -500 168 -740 195
-33 4 -69 9 -80 12 -25 6 -520 14 -526 9z m380 -530 c195 -12 444 -68 633
-142 209 -82 420 -208 601 -357 62 -51 245 -231 302 -297 156 -181 314 -436
385 -620 11 -30 25 -64 30 -75 20 -44 75 -238 86 -305 3 -14 7 -32 9 -40 4
-14 14 -68 21 -120 24 -182 24 -504 -2 -680 -47 -323 -153 -625 -317 -910 -46
-81 -163 -253 -189 -282 -7 -7 -35 -40 -61 -73 -62 -76 -154 -175 -164 -175
-4 0 -80 73 -168 163 -371 374 -629 595 -920 787 -44 29 -84 58 -90 65 -7 8
-9 378 -8 1071 0 582 1 1062 2 1066 1 3 132 7 292 7 160 1 295 3 299 6 4 2 7
123 6 267 l-1 263 -871 3 -871 2 -1 -270 0 -270 26 0 c15 -1 150 -1 300 -1
l272 1 1 -23 c3 -105 0 -1869 -3 -1872 -2 -3 -58 9 -124 25 -65 16 -135 32
-154 35 -231 33 -291 38 -465 38 -132 1 -277 -7 -355 -19 -254 -38 -484 -102
-719 -200 -57 -24 -107 -44 -111 -44 -8 0 -47 146 -55 205 -3 22 -8 56 -11 75
-28 205 -31 252 -28 450 1 118 5 226 7 240 3 14 8 44 10 67 33 260 148 578
295 817 116 188 212 309 391 486 391 388 872 612 1371 636 63 4 116 7 117 8 3
2 125 -2 232 -8z"/>
<path d="M5051 3983 c-2 -395 -3 -430 -16 -588 -4 -49 -8 -103 -9 -120 -1 -16
-5 -48 -9 -70 -4 -22 -9 -58 -12 -80 -15 -117 -54 -266 -96 -375 -98 -256
-305 -402 -629 -446 -71 -9 -221 -10 -270 -2 -25 5 -58 11 -75 14 -92 15 -220
74 -305 139 -219 169 -356 432 -363 698 0 26 -6 48 -11 49 -6 0 -129 2 -273 3
l-263 1 5 -105 c21 -407 150 -722 395 -969 143 -144 303 -243 493 -307 159
-53 265 -69 472 -69 191 -1 235 3 378 34 285 62 553 214 747 424 111 120 229
321 281 479 12 37 25 69 28 71 3 2 42 7 86 11 43 3 82 8 86 11 4 2 27 6 52 9
124 15 428 103 592 172 100 43 275 127 275 133 -1 3 -38 33 -83 67 -45 34 -94
73 -108 85 -15 13 -50 43 -79 67 -29 25 -58 50 -64 56 -6 6 -30 28 -54 49
l-42 39 -48 -18 c-26 -10 -60 -23 -77 -30 -87 -38 -323 -104 -426 -120 l-36
-6 2 356 2 356 -106 85 c-98 79 -286 212 -321 227 -8 4 -33 18 -55 32 -22 13
-45 24 -51 25 -8 0 -12 -111 -13 -387z"/>
</g>
</svg>
