<svg xmlns="http://www.w3.org/2000/svg" viewBox="0 0 21.13 25"><defs><style>.cls-1{fill:#022238;}</style></defs><g id="Layer_2" data-name="Layer 2"><g id="Layer_1-2" data-name="Layer 1"><path class="cls-1" d="M10.49,15.75c.35.25.74.55,1.15.9v1.24c0,.63,0,1.17,0,1.61a.81.81,0,0,1,0,.16,9.38,9.38,0,0,1-.14,1,5.27,5.27,0,0,1-.25.95,4.3,4.3,0,0,1-.38.81,4.89,4.89,0,0,1-1.94,1.86A5.68,5.68,0,0,1,6.09,25a4.87,4.87,0,0,1-3.67-1.47A5.46,5.46,0,0,1,1,19.59H3a3.61,3.61,0,0,0,.24,1.35A3.51,3.51,0,0,0,4,22.05,2.94,2.94,0,0,0,6.21,23,3,3,0,0,0,8.85,21.8,4.61,4.61,0,0,0,9.44,20a18.81,18.81,0,0,0,.2-3V15.24l.1,0A8.51,8.51,0,0,1,10.49,15.75Z"/><path class="cls-1" d="M13.87,3.38v2H11.64v8.74a8.73,8.73,0,0,0-.88-.54l-.27-.14c-.28-.14-.57-.26-.85-.37V5.39H7.41v-2Z"/><path class="cls-1" d="M20.87,19.22A8.92,8.92,0,0,1,19,19a4.64,4.64,0,0,1-1.41-.62A10.5,10.5,0,0,0,20.09,15a10.26,10.26,0,0,0,.81-4.14,10.75,10.75,0,0,0-3-7.79A10,10,0,0,0,10.43,0,10.17,10.17,0,0,0,6.51.75,10.28,10.28,0,0,0,3.2,3,10.6,10.6,0,0,0,.82,6.43,10.36,10.36,0,0,0,0,10.51a10.54,10.54,0,0,0,3,7.67,9.85,9.85,0,0,0,5.26,2.89,5,5,0,0,0,.48-1.57c0-.1,0-.2,0-.31a8.5,8.5,0,0,1-5.66-4.31A11.14,11.14,0,0,1,5,14.21,6.43,6.43,0,0,1,6.62,14,8.07,8.07,0,0,1,9,14.33a6.92,6.92,0,0,1,1.26.51,5.24,5.24,0,0,1,.75.46,15.86,15.86,0,0,1,1.85,1.51l.32.3h0a1.21,1.21,0,0,1,.16.16l0,0a19.22,19.22,0,0,0,3.43,2.81,8,8,0,0,0,1.27.57,6.2,6.2,0,0,0,2.07.37L21,21h.18V19.22ZM16,17.16a20.44,20.44,0,0,0-4.78-4A2.44,2.44,0,0,0,11,13a8.44,8.44,0,0,0-2-.71,9.27,9.27,0,0,0-2.13-.23,9.38,9.38,0,0,0-2.22.25,11.55,11.55,0,0,0-2.15.76,6.63,6.63,0,0,1-.17-.69c0-.16-.06-.42-.11-.77a8.61,8.61,0,0,1-.07-1.18A8.25,8.25,0,0,1,4.57,4.5,7.83,7.83,0,0,1,10.4,2a8,8,0,0,1,6,2.53,8.26,8.26,0,0,1,2.47,6,9.2,9.2,0,0,1-.72,3.61A9.65,9.65,0,0,1,16,17.16Zm-3.64,2a7.83,7.83,0,0,1-1.49.24c0,.29-.07.55-.12.8a5.39,5.39,0,0,1-.31,1.1,10.05,10.05,0,0,0,2.89-.42A11.24,11.24,0,0,0,15.41,20a18.22,18.22,0,0,1-1.61-1.35A11.36,11.36,0,0,1,12.39,19.13Z"/></g></g></svg>